<svg xmlns="http://www.w3.org/2000/svg" width="22" height="18.047" viewBox="0 0 22 18.047">
  <g id="email" transform="translate(0 -46)">
    <g id="Group_51" data-name="Group 51" transform="translate(0 46)">
      <path id="Path_218" data-name="Path 218" d="M20.066,46H7.09a1.936,1.936,0,0,0-1.934,1.934v.645H4.512a1.936,1.936,0,0,0-1.934,1.934v.645H1.934A1.936,1.936,0,0,0,0,53.09v9.023a1.937,1.937,0,0,0,1.934,1.934H14.824a1.937,1.937,0,0,0,1.934-1.934v-.645h.73a1.936,1.936,0,0,0,1.934-1.934v-.645h.645A1.936,1.936,0,0,0,22,56.957V47.934A1.936,1.936,0,0,0,20.066,46ZM14.5,52.445,8.837,58.157a.644.644,0,0,1-.916,0L2.262,52.445Zm-13.206,9.4V53.295l4.256,4.3Zm.911.911,4.252-4.252.553.558a1.932,1.932,0,0,0,2.747,0l.553-.558,4.252,4.252Zm13.268-.911L11.213,57.59l4.256-4.3Zm2.664-2.311a.645.645,0,0,1-.645.645h-.73V53.09a1.936,1.936,0,0,0-1.934-1.934H3.867v-.645a.645.645,0,0,1,.645-.645H17.488a.645.645,0,0,1,.645.645Zm2.578-2.578a.645.645,0,0,1-.645.645h-.645v-7.09a1.936,1.936,0,0,0-1.934-1.934H6.445v-.645a.645.645,0,0,1,.645-.645H20.066a.645.645,0,0,1,.645.645Z" transform="translate(0 -46)" fill="#b2ada2"/>
    </g>
  </g>
</svg>
