<svg xmlns="http://www.w3.org/2000/svg" width="119.936" height="88.608" viewBox="0 0 119.936 88.608">
  <g id="Group_40" data-name="Group 40" transform="translate(-919 -20.954)">
    <path id="Path_204" data-name="Path 204" d="M-95.776,164.791q-1.04-.68-2.036-1.4c-.872-.672-1.344-1.266-1.4-1.784l-7.2-54.6q-.132-.992,1.646-2.254c.333-.243.817-.574,1.458-1a.764.764,0,0,0,.365-.59c0-.395-.424-.593-1.27-.595-.245,0-.971.043-2.186.124s-2.276.132-3.18.132c-.639,0-2-.082-4.092-.237-.426-.028-.938-.046-1.545-.046q-1,0-1,.452a1,1,0,0,0,.362.643c.46.368.9.715,1.322,1.057a6.7,6.7,0,0,1,.865.777,1.667,1.667,0,0,1,.451,1.04,2.042,2.042,0,0,1-.726,1.407l-14.915,16.556c-.06,0-1.253-1.184-3.573-3.546q-3.944-4.046-6.878-7.408-3.8-4.41-4.476-6.315a1.4,1.4,0,0,1-.09-.406q0-.822,1.228-1.723c.424-.345,1.013-.838,1.77-1.463a.959.959,0,0,0,.316-.619c0-.347-.347-.522-1.042-.522-1,.084-1.872.15-2.629.192s-1.754.06-2.99.06c-1.115,0-2.305-.054-3.578-.146s-2.008-.142-2.216-.142c-.548,0-.821.184-.822.548a.785.785,0,0,0,.271.553q1,.78,2.005,1.516c.85.687,1.24,1.3,1.18,1.833l-7.851,54.563a3.123,3.123,0,0,1-1.228,1.776c-.6.441-1.2.884-1.776,1.327a1.328,1.328,0,0,0-.545.841c0,.324.333.488,1,.488,1-.054,1.881-.11,2.655-.167s1.79-.085,3.058-.08c.6,0,1.61.057,3.015.163a22.559,22.559,0,0,0,2.518.118c.543,0,.818-.163.818-.494a1.016,1.016,0,0,0-.359-.681q-1.047-.72-2.036-1.489c-.819-.644-1.194-1.236-1.129-1.787l7.053-49.028a29.306,29.306,0,0,0,3.679,6.507q2.938,4.287,7.938,10.282a17.389,17.389,0,0,0-3.052,4.383,14.147,14.147,0,0,0-1.606,6.291,12.31,12.31,0,0,0,2.295,7.483,7.6,7.6,0,0,0,6.368,3.411,7.758,7.758,0,0,0,6.534-3.465,12.767,12.767,0,0,0,2.375-7.653,16,16,0,0,0-1.838-7.028,24.029,24.029,0,0,0-4.1-5.941l14.647-16.359,6.757,51.243a2.241,2.241,0,0,1-.957,1.776c-.364.334-.921.825-1.681,1.485a1.013,1.013,0,0,0-.364.677c0,.331.334.5,1,.5.907-.053,1.709-.111,2.426-.169s1.652-.084,2.835-.082c.63,0,1.993.077,4.075.237.424.025.941.042,1.542.045.729,0,1.09-.161,1.09-.5,0-.242-.183-.5-.542-.766M-125.461,140.4a9.1,9.1,0,0,1-1.146,4.662,3.869,3.869,0,0,1-3.488,2.214,4.317,4.317,0,0,1-3.891-2.457,10.164,10.164,0,0,1-1.166-5.08,9.244,9.244,0,0,1,1.369-4.714,14.112,14.112,0,0,1,2.823-3.346,19.459,19.459,0,0,1,3.569,3.637,8.788,8.788,0,0,1,1.931,5.085" transform="translate(1081.098 -81.482)" fill="#461540"/>
    <path id="Path_205" data-name="Path 205" d="M-61.5,164.818c-.7-.449-1.373-.918-2.033-1.4-.878-.67-1.35-1.263-1.406-1.784l-7.2-54.6q-.13-.994,1.646-2.256c.334-.243.822-.57,1.455-1a.763.763,0,0,0,.368-.588q0-.592-1.276-.595c-.237,0-.968.043-2.18.124s-2.276.13-3.179.125c-.641,0-2-.081-4.089-.231-.429-.033-.94-.048-1.548-.048-.67,0-1,.149-1,.455a1,1,0,0,0,.364.639c.457.37.895.72,1.321,1.056a6.413,6.413,0,0,1,.864.782,1.63,1.63,0,0,1,.454,1.044,2.06,2.06,0,0,1-.728,1.4L-94.582,124.5q-.091,0-3.575-3.546-3.937-4.046-6.876-7.407-3.8-4.4-4.475-6.315a1.555,1.555,0,0,1-.091-.4c0-.545.412-1.121,1.228-1.72q.634-.523,1.768-1.469a.947.947,0,0,0,.319-.615c0-.348-.347-.523-1.042-.523-1,.084-1.872.149-2.632.189s-1.748.062-2.987.06q-1.679,0-3.58-.144c-1.268-.091-2.011-.136-2.222-.136-.542,0-.816.18-.818.547a.78.78,0,0,0,.276.547c.664.525,1.333,1.028,2,1.517q1.273,1.031,1.18,1.835l-7.853,54.56a3.11,3.11,0,0,1-1.229,1.777c-.605.441-1.2.886-1.771,1.327a1.316,1.316,0,0,0-.547.839c0,.327.333.491,1,.494,1-.059,1.886-.111,2.654-.17s1.787-.087,3.056-.082c.6,0,1.613.054,3.019.166a24.284,24.284,0,0,0,2.513.118c.547,0,.816-.164.817-.5a1.01,1.01,0,0,0-.361-.677c-.694-.486-1.372-.979-2.034-1.494-.814-.641-1.191-1.237-1.129-1.781l7.054-49.031a29.489,29.489,0,0,0,3.679,6.5q2.943,4.3,7.938,10.284a17.391,17.391,0,0,0-3.049,4.383,14.161,14.161,0,0,0-1.606,6.291,12.327,12.327,0,0,0,2.29,7.483,7.6,7.6,0,0,0,6.374,3.409,7.736,7.736,0,0,0,6.529-3.468,12.711,12.711,0,0,0,2.377-7.65,15.984,15.984,0,0,0-1.838-7.023,23.956,23.956,0,0,0-4.1-5.944l14.648-16.357,6.755,51.242a2.261,2.261,0,0,1-.954,1.777q-.548.492-1.683,1.486a1.01,1.01,0,0,0-.368.672c0,.333.333.5,1,.5q1.359-.086,2.428-.172c.709-.062,1.654-.081,2.833-.081q.95,0,4.078.232c.424.033.937.045,1.541.048.726,0,1.09-.163,1.092-.494,0-.243-.183-.5-.542-.771m-29.684-24.391a9.1,9.1,0,0,1-1.149,4.668,3.873,3.873,0,0,1-3.488,2.211,4.319,4.319,0,0,1-3.886-2.457,10.21,10.21,0,0,1-1.167-5.083,9.23,9.23,0,0,1,1.373-4.71,13.981,13.981,0,0,1,2.815-3.35,19.191,19.191,0,0,1,3.569,3.64,8.743,8.743,0,0,1,1.934,5.081" transform="translate(1099.892 -81.462)" fill="#461540"/>
    <path id="Path_206" data-name="Path 206" d="M-155.256,165.094V149.766h10.1v2.669h-7.1v3.6h6.049V158.7h-6.049v3.725h7.1v2.669Z" transform="translate(1084.678 -55.532)" fill="#461540"/>
    <path id="Path_207" data-name="Path 207" d="M-126.913,165.094V156.16l-2.928,5.812h-2.024l-2.949-5.812v8.934h-2.993V149.766h2.95l4,8.288,3.984-8.288h2.95v15.328Z" transform="translate(1094.245 -55.532)" fill="#461540"/>
    <path id="Path_208" data-name="Path 208" d="M-117.494,165.094V149.766h10.1v2.669h-7.1v3.6h6.049V158.7H-114.5v3.725h7.1v2.669Z" transform="translate(1105.383 -55.532)" fill="#461540"/>
    <path id="Path_209" data-name="Path 209" d="M-89.151,165.094V156.16l-2.928,5.812H-94.1l-2.95-5.812v8.934h-2.993V149.766h2.95l4,8.288,3.984-8.288h2.95v15.328Z" transform="translate(1114.95 -55.532)" fill="#461540"/>
    <rect id="Rectangle_1120" data-name="Rectangle 1120" width="119.936" height="1.187" transform="translate(919 88.694)" fill="#461540"/>
  </g>
</svg>
