<svg id="telephone" xmlns="http://www.w3.org/2000/svg" width="22" height="22.001" viewBox="0 0 22 22.001">
  <g id="Group_50" data-name="Group 50" transform="translate(0 0)">
    <path id="Path_217" data-name="Path 217" d="M21.445,16.227,18.71,13.492a1.936,1.936,0,0,0-2.735,0l-1.243,1.243a1.467,1.467,0,0,1-2.072,0L7.271,9.342a1.464,1.464,0,0,1,0-2.072L8.515,6.027a1.933,1.933,0,0,0,0-2.736L5.78.566a1.936,1.936,0,0,0-2.733,0l-1,.988a6.982,6.982,0,0,0,0,9.863l8.538,8.542a6.97,6.97,0,0,0,9.863,0l.995-.995A1.936,1.936,0,0,0,21.445,16.227ZM3.956,1.477a.646.646,0,0,1,.912,0L7.6,4.2a.644.644,0,0,1,0,.912l-.456.456L3.5,1.927ZM11.5,19.045,2.962,10.5a5.668,5.668,0,0,1-.356-7.649L6.24,6.487a2.752,2.752,0,0,0,.12,3.766l5.388,5.393h0a2.752,2.752,0,0,0,3.767.12L19.149,19.4A5.657,5.657,0,0,1,11.5,19.045Zm9.034-.995-.456.456L16.431,14.86l.456-.456a.645.645,0,0,1,.912,0l2.735,2.735A.645.645,0,0,1,20.533,18.05Z" transform="translate(-0.011 0)" fill="#b2ada2"/>
  </g>
</svg>
